<svg width="410" height="55" viewBox="0 0 410 55" fill="none" xmlns="http://www.w3.org/2000/svg">
<path d="M0.225852 54V15.8182H10.3182V22.5547H10.7656C11.5611 20.3175 12.8868 18.5526 14.7429 17.2599C16.599 15.9673 18.8196 15.321 21.4048 15.321C24.0232 15.321 26.2521 15.9756 28.0916 17.2848C29.9311 18.5774 31.1574 20.334 31.7706 22.5547H32.1683C32.9472 20.3672 34.3558 18.6188 36.3942 17.3097C38.4491 15.9839 40.8769 15.321 43.6776 15.321C47.2405 15.321 50.1323 16.4562 52.353 18.7266C54.5902 20.9803 55.7088 24.1787 55.7088 28.3217V54H45.1442V30.4098C45.1442 28.2886 44.5807 26.6977 43.4538 25.6371C42.3269 24.5765 40.9183 24.0462 39.228 24.0462C37.3056 24.0462 35.8059 24.6593 34.7287 25.8857C33.6515 27.0954 33.1129 28.6946 33.1129 30.6832V54H22.8466V30.1861C22.8466 28.3134 22.308 26.822 21.2308 25.7116C20.1702 24.6013 18.7699 24.0462 17.0298 24.0462C15.8532 24.0462 14.7926 24.3445 13.848 24.9411C12.92 25.5211 12.1825 26.3414 11.6357 27.402C11.0888 28.446 10.8153 29.6723 10.8153 31.081V54H0.225852ZM64.0735 54V15.8182H74.663V54H64.0735ZM69.3931 10.8963C67.8188 10.8963 66.4682 10.3743 65.3413 9.33025C64.2309 8.26965 63.6758 7.00189 63.6758 5.52699C63.6758 4.06865 64.2309 2.81747 65.3413 1.77344C66.4682 0.71283 67.8188 0.182526 69.3931 0.182526C70.9674 0.182526 72.3098 0.71283 73.4201 1.77344C74.547 2.81747 75.1104 4.06865 75.1104 5.52699C75.1104 7.00189 74.547 8.26965 73.4201 9.33025C72.3098 10.3743 70.9674 10.8963 69.3931 10.8963ZM100.397 54.7457C96.4862 54.7457 93.1221 53.9171 90.3049 52.2599C87.5042 50.5862 85.3498 48.2661 83.8418 45.2997C82.3503 42.3333 81.6046 38.9195 81.6046 35.0582C81.6046 31.1473 82.3586 27.7169 83.8667 24.767C85.3913 21.8007 87.5539 19.4889 90.3546 17.8317C93.1552 16.1579 96.4862 15.321 100.347 15.321C103.678 15.321 106.595 15.9259 109.097 17.1357C111.6 18.3454 113.58 20.044 115.039 22.2315C116.497 24.419 117.301 26.9877 117.45 29.9375H107.457C107.175 28.0317 106.429 26.4988 105.22 25.3388C104.026 24.1622 102.46 23.5739 100.521 23.5739C98.8809 23.5739 97.4474 24.0213 96.2211 24.9162C95.0113 25.7945 94.0667 27.0788 93.3873 28.7692C92.7078 30.4595 92.3681 32.5062 92.3681 34.9091C92.3681 37.3452 92.6995 39.4167 93.3624 41.1236C94.0418 42.8305 94.9947 44.1314 96.2211 45.0263C97.4474 45.9212 98.8809 46.3686 100.521 46.3686C101.731 46.3686 102.817 46.12 103.778 45.6229C104.756 45.1257 105.559 44.4048 106.189 43.4602C106.835 42.4991 107.258 41.3473 107.457 40.005H117.45C117.284 42.9216 116.489 45.4903 115.063 47.7109C113.655 49.915 111.708 51.6385 109.222 52.8814C106.736 54.1243 103.794 54.7457 100.397 54.7457ZM134.819 31.9261V54H124.23V3.09091H134.521V22.5547H134.968C135.83 20.3009 137.222 18.536 139.145 17.2599C141.067 15.9673 143.478 15.321 146.378 15.321C149.03 15.321 151.342 15.901 153.314 17.0611C155.302 18.2045 156.843 19.8535 157.937 22.0078C159.047 24.1456 159.594 26.706 159.578 29.6889V54H148.988V31.5781C149.005 29.2249 148.408 27.3937 147.199 26.0845C146.005 24.7753 144.332 24.1207 142.177 24.1207C140.735 24.1207 139.459 24.4273 138.349 25.0405C137.255 25.6536 136.394 26.5485 135.764 27.7251C135.151 28.8852 134.836 30.2855 134.819 31.9261ZM178.799 54.7209C176.363 54.7209 174.192 54.2983 172.286 53.4531C170.381 52.5914 168.873 51.3236 167.762 49.6499C166.669 47.9595 166.122 45.8549 166.122 43.3359C166.122 41.2147 166.511 39.4332 167.29 37.9915C168.069 36.5497 169.129 35.3897 170.472 34.5114C171.814 33.633 173.339 32.9702 175.046 32.5227C176.769 32.0753 178.575 31.7604 180.465 31.5781C182.685 31.3461 184.475 31.1307 185.834 30.9318C187.193 30.7164 188.179 30.4015 188.792 29.9872C189.405 29.5729 189.712 28.9598 189.712 28.1477V27.9986C189.712 26.4242 189.215 25.2062 188.22 24.3445C187.243 23.4827 185.851 23.0518 184.044 23.0518C182.138 23.0518 180.622 23.4744 179.495 24.3196C178.368 25.1482 177.623 26.1922 177.258 27.4517L167.464 26.6562C167.961 24.3362 168.939 22.331 170.397 20.6406C171.856 18.9337 173.736 17.6245 176.04 16.7131C178.36 15.785 181.045 15.321 184.094 15.321C186.215 15.321 188.245 15.5696 190.184 16.0668C192.14 16.5639 193.871 17.3345 195.379 18.3785C196.904 19.4226 198.106 20.7649 198.984 22.4055C199.862 24.0296 200.301 25.9768 200.301 28.2472V54H190.259V48.7053H189.96C189.347 49.8984 188.527 50.9508 187.499 51.8622C186.472 52.7571 185.237 53.4614 183.796 53.9751C182.354 54.4723 180.688 54.7209 178.799 54.7209ZM181.832 47.4126C183.39 47.4126 184.765 47.1061 185.958 46.4929C187.151 45.8632 188.088 45.018 188.767 43.9574C189.447 42.8968 189.786 41.6953 189.786 40.353V36.3011C189.455 36.5166 188.999 36.7154 188.419 36.8977C187.856 37.0634 187.218 37.2209 186.505 37.37C185.793 37.5026 185.08 37.6269 184.367 37.7429C183.655 37.8423 183.008 37.9335 182.428 38.0163C181.186 38.1986 180.1 38.4886 179.172 38.8864C178.244 39.2841 177.523 39.8227 177.009 40.5021C176.496 41.165 176.239 41.9936 176.239 42.9879C176.239 44.4297 176.761 45.5317 177.805 46.294C178.865 47.0398 180.208 47.4126 181.832 47.4126ZM225.917 54.7457C221.99 54.7457 218.609 53.9503 215.775 52.3594C212.958 50.7519 210.787 48.4815 209.263 45.5483C207.738 42.5985 206.976 39.1101 206.976 35.0831C206.976 31.1555 207.738 27.7086 209.263 24.7422C210.787 21.7758 212.933 19.464 215.701 17.8068C218.485 16.1496 221.75 15.321 225.495 15.321C228.014 15.321 230.359 15.727 232.53 16.5391C234.717 17.3345 236.623 18.536 238.247 20.1435C239.888 21.7509 241.164 23.7727 242.075 26.2088C242.987 28.6283 243.442 31.4621 243.442 34.7102V37.6186H211.202V31.0561H233.474C233.474 29.5315 233.143 28.1809 232.48 27.0043C231.817 25.8277 230.897 24.9079 229.721 24.245C228.561 23.5656 227.21 23.2259 225.669 23.2259C224.061 23.2259 222.636 23.5987 221.393 24.3445C220.167 25.0736 219.206 26.0597 218.51 27.3026C217.814 28.5289 217.457 29.8961 217.441 31.4041V37.6435C217.441 39.5327 217.789 41.165 218.485 42.5405C219.198 43.916 220.2 44.9766 221.493 45.7223C222.785 46.468 224.318 46.8409 226.091 46.8409C227.268 46.8409 228.345 46.6752 229.323 46.3438C230.301 46.0123 231.138 45.5152 231.834 44.8523C232.53 44.1894 233.06 43.3774 233.425 42.4162L243.219 43.0625C242.721 45.4157 241.702 47.4706 240.161 49.2273C238.636 50.9673 236.664 52.3262 234.245 53.304C231.842 54.2652 229.066 54.7457 225.917 54.7457ZM260.942 3.09091V54H250.353V3.09091H260.942ZM267.685 11.9652V3.09091H309.496V11.9652H293.91V54H283.271V11.9652H267.685ZM327.897 54.7457C324.036 54.7457 320.697 53.9254 317.879 52.2848C315.079 50.6276 312.916 48.3241 311.392 45.3743C309.867 42.4079 309.105 38.9692 309.105 35.0582C309.105 31.1141 309.867 27.6671 311.392 24.7173C312.916 21.7509 315.079 19.4474 317.879 17.8068C320.697 16.1496 324.036 15.321 327.897 15.321C331.758 15.321 335.089 16.1496 337.89 17.8068C340.707 19.4474 342.878 21.7509 344.403 24.7173C345.927 27.6671 346.69 31.1141 346.69 35.0582C346.69 38.9692 345.927 42.4079 344.403 45.3743C342.878 48.3241 340.707 50.6276 337.89 52.2848C335.089 53.9254 331.758 54.7457 327.897 54.7457ZM327.947 46.5426C329.704 46.5426 331.17 46.0455 332.347 45.0511C333.523 44.0402 334.41 42.6648 335.007 40.9247C335.62 39.1847 335.926 37.2043 335.926 34.9837C335.926 32.763 335.62 30.7827 335.007 29.0426C334.41 27.3026 333.523 25.9271 332.347 24.9162C331.17 23.9053 329.704 23.3999 327.947 23.3999C326.174 23.3999 324.682 23.9053 323.472 24.9162C322.279 25.9271 321.376 27.3026 320.763 29.0426C320.166 30.7827 319.868 32.763 319.868 34.9837C319.868 37.2043 320.166 39.1847 320.763 40.9247C321.376 42.6648 322.279 44.0402 323.472 45.0511C324.682 46.0455 326.174 46.5426 327.947 46.5426ZM353.575 54V15.8182H363.668V22.5547H364.115C364.911 20.3175 366.236 18.5526 368.093 17.2599C369.949 15.9673 372.169 15.321 374.754 15.321C377.373 15.321 379.602 15.9756 381.441 17.2848C383.281 18.5774 384.507 20.334 385.12 22.5547H385.518C386.297 20.3672 387.705 18.6188 389.744 17.3097C391.799 15.9839 394.227 15.321 397.027 15.321C400.59 15.321 403.482 16.4562 405.703 18.7266C407.94 20.9803 409.058 24.1787 409.058 28.3217V54H398.494V30.4098C398.494 28.2886 397.93 26.6977 396.803 25.6371C395.677 24.5765 394.268 24.0462 392.578 24.0462C390.655 24.0462 389.155 24.6593 388.078 25.8857C387.001 27.0954 386.463 28.6946 386.463 30.6832V54H376.196V30.1861C376.196 28.3134 375.658 26.822 374.58 25.7116C373.52 24.6013 372.119 24.0462 370.379 24.0462C369.203 24.0462 368.142 24.3445 367.198 24.9411C366.27 25.5211 365.532 26.3414 364.985 27.402C364.438 28.446 364.165 29.6723 364.165 31.081V54H353.575Z" fill="white"/>
</svg>
