<svg class="svg-inline--fa jwi-sun-half-fill fa-w-16" aria-hidden="true" focusable="false" data-prefix="jwf-jw-icons-external" data-icon="sun-half-fill" role="img" xmlns="http://www.w3.org/2000/svg" viewBox="0 0 24 24" data-fa-i2svg=""><path fill="currentColor" d="M12 6a6 6 0 106 6 6 6 0 00-6-6zm0 11V7a5 5 0 010 10zM12 23.5a.5.5 0 01-.5-.5v-3a.5.5 0 011 0v3a.5.5 0 01-.5.5zM12 4.5a.5.5 0 01-.5-.5V1a.5.5 0 011 0v3a.5.5 0 01-.5.5zM23 12.5h-3a.5.5 0 010-1h3a.5.5 0 010 1zM4 12.5H1a.5.5 0 010-1h3a.5.5 0 010 1zM19.78 20.28a.51.51 0 01-.36-.15L17.3 18a.5.5 0 01.7-.7l2.12 2.12a.5.5 0 010 .71.49.49 0 01-.34.15zM6.34 6.84A.52.52 0 016 6.7L3.87 4.58a.5.5 0 11.71-.71L6.7 6a.51.51 0 010 .71.54.54 0 01-.36.13zM4.22 20.28a.49.49 0 01-.35-.15.5.5 0 010-.71L6 17.3a.5.5 0 11.7.7l-2.12 2.13a.51.51 0 01-.36.15zM17.66 6.84a.54.54 0 01-.36-.14.51.51 0 010-.71l2.12-2.12a.5.5 0 01.71.71L18 6.7a.52.52 0 01-.34.14z"></path></svg>
